# xmcd
#
# Track frame offsets: 
#        150
#        16645
#        33140
#        49635
#        66130
#
# Disc length: 1095 seconds
#
# Revision: 0
# Processed by: cddbd v1.5.2PL0 Copyright (c) Steve Scherf et al.
# Submitted via: ExactAudioCopy v1.0b6
#
DISCID=2e044505
DTITLE=Phil Cross - When He Saved Me (Christian World Soundtraks) (201
DTITLE=1)
DYEAR=2011
DGENRE=Performance Trax
TTITLE0=When He Saved Me - Demonstration
TTITLE1=When He Saved Me - Performance Track - Original Key of G
TTITLE2=When He Saved Me - Performance Track - Higher Key of Bb
TTITLE3=When He Saved Me - Performance Track - Lower Key of E
TTITLE4=When He Saved Me - Performance Track - Original Key of G, No B
TTITLE4=GVs
EXTD=
EXTT0=
EXTT1=
EXTT2=
EXTT3=
EXTT4=
PLAYORDER=
